<svg width="32" height="32" viewBox="0 0 32 32" fill="none" xmlns="http://www.w3.org/2000/svg">
<path d="M21.6186 6.64318L23.4876 4.77417C24.5198 3.74194 26.1934 3.74194 27.2257 4.77417C28.2578 5.8064 28.2578 7.47997 27.2257 8.5122L25.3566 10.3812M21.6186 6.64318L14.6401 13.6217C13.2464 15.0155 12.5495 15.7123 12.075 16.5615C11.6005 17.4107 11.123 19.4159 10.6665 21.3333C12.584 20.8768 14.5892 20.3993 15.4384 19.9248C16.2876 19.4503 16.9844 18.7535 18.3781 17.3597L25.3566 10.3812M21.6186 6.64318L25.3566 10.3812" stroke="#C896FE" stroke-width="1.5" stroke-linecap="round" stroke-linejoin="round"/>
<path d="M28 16C28 21.6568 28 24.4853 26.2427 26.2427C24.4853 28 21.6568 28 16 28C10.3431 28 7.51472 28 5.75736 26.2427C4 24.4853 4 21.6568 4 16C4 10.3431 4 7.51472 5.75736 5.75736C7.51472 4 10.3431 4 16 4" stroke="#C896FE" stroke-width="1.5" stroke-linecap="round"/>
</svg>
