<svg width="20" height="20" viewBox="0 0 20 20" fill="none" xmlns="http://www.w3.org/2000/svg">
<path d="M17.5 16.6993C17.5 16.9116 17.4122 17.1153 17.2559 17.2655C17.0996 17.4156 16.8877 17.5 16.6667 17.5H3.33333C3.11232 17.5 2.90036 17.4156 2.74408 17.2655C2.5878 17.1153 2.5 16.9116 2.5 16.6993V8.28349C2.49991 8.16147 2.52885 8.04104 2.5846 7.93141C2.64035 7.82177 2.72143 7.72583 2.82167 7.65091L9.48833 2.66871C9.63462 2.55937 9.81467 2.5 10 2.5C10.1853 2.5 10.3654 2.55937 10.5117 2.66871L17.1783 7.65091C17.2786 7.72583 17.3597 7.82177 17.4154 7.93141C17.4712 8.04104 17.5001 8.16147 17.5 8.28349V16.6993ZM15.8333 15.8985V8.67425L10 4.31503L4.16667 8.67425V15.8985H15.8333Z" fill="#A0A6B0"/>
</svg>
