<svg width="20" height="20" viewBox="0 0 20 20" fill="none" xmlns="http://www.w3.org/2000/svg">
<path d="M2.5 2.49996C2.5 2.03972 2.8731 1.66663 3.33333 1.66663C3.79357 1.66663 4.16667 2.03972 4.16667 2.49996V17.5C4.16667 17.9602 3.79357 18.3333 3.33333 18.3333C2.8731 18.3333 2.5 17.9602 2.5 17.5V2.49996ZM8.33333 5.83329C8.33333 5.37306 8.70643 4.99996 9.16667 4.99996H13.3333C13.7936 4.99996 14.1667 5.37306 14.1667 5.83329C14.1667 6.29353 13.7936 6.66663 13.3333 6.66663H9.16667C8.70643 6.66663 8.33333 6.29353 8.33333 5.83329ZM8.33333 9.16663C8.33333 8.70639 8.70643 8.33329 9.16667 8.33329H13.3333C13.7936 8.33329 14.1667 8.70639 14.1667 9.16663C14.1667 9.62686 13.7936 9.99996 13.3333 9.99996H9.16667C8.70643 9.99996 8.33333 9.62686 8.33333 9.16663Z" fill="#A0A6B0"/>
<path d="M15.8333 1.66663H5V18.3333H15.8333C16.7525 18.3333 17.5 17.5858 17.5 16.6666V3.33329C17.5 2.41413 16.7525 1.66663 15.8333 1.66663ZM15.8333 16.6666H6.66667V3.33329H15.8333V16.6666Z" fill="#A0A6B0"/>
</svg>
