<svg width="20" height="20" viewBox="0 0 20 20" fill="none" xmlns="http://www.w3.org/2000/svg">
<path d="M10.1133 1.87502C5.54377 1.8133 1.8133 5.54377 1.87502 10.1133C1.93596 14.4957 5.50432 18.0641 9.88674 18.125C14.4571 18.1875 18.1867 14.4571 18.1242 9.88752C18.0641 5.50432 14.4957 1.93596 10.1133 1.87502ZM15.0516 14.6582C15.036 14.6751 15.017 14.6883 14.9957 14.6969C14.9745 14.7055 14.9516 14.7094 14.9287 14.7082C14.9058 14.707 14.8835 14.7008 14.8633 14.69C14.8431 14.6792 14.8255 14.6641 14.8117 14.6457C14.4623 14.1886 14.0345 13.7972 13.5481 13.4899C12.5535 12.8516 11.2934 12.5 10 12.5C8.70666 12.5 7.44651 12.8516 6.45198 13.4899C5.9656 13.7971 5.53772 14.1883 5.1883 14.6453C5.17458 14.6637 5.15698 14.6788 5.13676 14.6896C5.11654 14.7004 5.0942 14.7066 5.07131 14.7078C5.04842 14.709 5.02555 14.7051 5.00432 14.6965C4.98309 14.6879 4.96402 14.6747 4.94846 14.6578C3.80224 13.4205 3.15295 11.8037 3.12502 10.1172C3.06135 6.31604 6.18049 3.1344 9.98323 3.12502C13.786 3.11565 16.875 6.20354 16.875 10C16.8763 11.7271 16.225 13.391 15.0516 14.6582Z" fill="#A0A6B0"/>
<path d="M10 5.625C9.22974 5.625 8.53325 5.91367 8.03833 6.43828C7.54341 6.96289 7.29614 7.68828 7.352 8.4668C7.46528 10 8.65317 11.25 10 11.25C11.3469 11.25 12.5325 10 12.6481 8.46719C12.7059 7.69609 12.4606 6.97734 11.9575 6.44297C11.4606 5.91563 10.7653 5.625 10 5.625Z" fill="#A0A6B0"/>
</svg>
